<svg height="150" viewBox="0 0 64 64" width="150" xmlns="http://www.w3.org/2000/svg"><g fill="#78b9eb"><path d="m61 29v6a2.006 2.006 0 0 1 -2 2h-2v-10h2a2.006 2.006 0 0 1 2 2z"/><path d="m61 43v6a2.006 2.006 0 0 1 -2 2h-2v-10h2a2.006 2.006 0 0 1 2 2z"/><path d="m61 15v6a2.006 2.006 0 0 1 -2 2h-2v-10h2a2.006 2.006 0 0 1 2 2z"/><path d="m57 51v8a2.228 2.228 0 0 1 -2.4 2h-35.6v-58h35.6a2.228 2.228 0 0 1 2.4 2zm-5-32v-10h-29v10z"/><path d="m12 47a3 3 0 0 1 0 6h-6a3 3 0 0 1 0-6z"/><path d="m12 35a3 3 0 0 1 0 6h-6a3 3 0 0 1 0-6z"/><path d="m12 23a3 3 0 0 1 0 6h-6a3 3 0 0 1 0-6z"/><path d="m12 11a3 3 0 0 1 0 6h-6a3 3 0 0 1 0-6z"/></g><path d="m52 8h-29a1 1 0 0 0 -1 1v10a1 1 0 0 0 1 1h29a1 1 0 0 0 1-1v-10a1 1 0 0 0 -1-1zm-1 10h-27v-8h27z" fill="#006df0"/><path d="m59 24a3 3 0 0 0 3-3v-6a3 3 0 0 0 -3-3h-1v-7a3.223 3.223 0 0 0 -3.4-3h-40.8c-3.2 0-5.8 2.243-5.8 5v3h-2a4 4 0 0 0 0 8h2v4h-2a4 4 0 0 0 0 8h2v4h-2a4 4 0 0 0 0 8h2v4h-2a4 4 0 0 0 0 8h2v3c0 2.757 2.6 5 5.8 5h40.8a3.223 3.223 0 0 0 3.4-3v-7h1a3 3 0 0 0 3-3v-6a3 3 0 0 0 -3-3h-1v-2h1a3 3 0 0 0 3-3v-6a3 3 0 0 0 -3-3h-1v-2zm0-10a1 1 0 0 1 1 1v6a1 1 0 0 1 -1 1h-1v-8zm-55 0a2 2 0 0 1 2-2h6a2 2 0 0 1 0 4h-6a2 2 0 0 1 -2-2zm0 12a2 2 0 0 1 2-2h6a2 2 0 0 1 0 4h-6a2 2 0 0 1 -2-2zm0 12a2 2 0 0 1 2-2h6a2 2 0 0 1 0 4h-6a2 2 0 0 1 -2-2zm0 12a2 2 0 0 1 2-2h6a2 2 0 0 1 0 4h-6a2 2 0 0 1 -2-2zm6 7v-3h2a4 4 0 0 0 0-8h-2v-4h2a4 4 0 0 0 0-8h-2v-4h2a4 4 0 0 0 0-8h-2v-4h2a4 4 0 0 0 0-8h-2v-3c0-1.654 1.705-3 3.8-3h4.2v56h-4.2c-2.095 0-3.8-1.346-3.8-3zm46 2c0 .542-.642 1-1.4 1h-34.6v-56h34.6c.758 0 1.4.458 1.4 1zm3-17a1 1 0 0 1 1 1v6a1 1 0 0 1 -1 1h-1v-8zm0-14a1 1 0 0 1 1 1v6a1 1 0 0 1 -1 1h-1v-8z" fill="#006df0"/></svg>